<?xml version="1.0" standalone="no"?>
<!DOCTYPE svg PUBLIC "-//W3C//DTD SVG 20010904//EN"
 "http://www.w3.org/TR/2001/REC-SVG-20010904/DTD/svg10.dtd">
<svg version="1.0" xmlns="http://www.w3.org/2000/svg"
 width="860.000000pt" height="267.000000pt" viewBox="0 0 860.000000 267.000000"
 preserveAspectRatio="xMidYMid meet">

<g transform="translate(0.000000,267.000000) scale(0.100000,-0.100000)"
fill="#eab308" stroke="#fafafa" stroke-width="15">
<path d="M995 2110 c-168 -19 -282 -78 -430 -221 -60 -58 -120 -111 -132 -118
-19 -10 -33 -41 -19 -41 8 0 60 46 171 152 92 87 127 113 196 146 104 50 147
60 304 72 l20 1 -20 9 c-11 5 -22 8 -25 8 -3 0 -32 -4 -65 -8z"/>
<path d="M5290 1933 c-64 -11 -150 -47 -202 -86 -65 -48 -165 -187 -199 -277
-55 -143 -27 -357 60 -460 12 -14 5 1 -14 34 -51 87 -70 184 -57 294 13 104
35 159 109 270 99 146 216 212 381 212 88 0 240 -29 307 -59 25 -11 45 -18 45
-15 0 14 -117 55 -207 73 -95 20 -164 24 -223 14z"/>
<path d="M7222 1904 c-37 -19 -59 -38 -77 -68 l-25 -43 0 -349 c0 -324 2 -352
20 -392 15 -34 29 -46 66 -63 28 -11 51 -16 56 -11 6 6 -3 12 -20 15 -23 5
-35 17 -56 59 -29 59 -31 73 -29 358 0 91 1 183 1 205 0 60 17 144 40 196 17
38 28 49 69 67 28 12 69 24 92 28 62 10 49 24 -22 24 -48 0 -76 -6 -115 -26z"/>
<path d="M820 1886 c-19 -7 -46 -18 -60 -24 -41 -16 -133 -115 -163 -175 -100
-200 -59 -533 83 -661 21 -19 36 -37 33 -39 -8 -8 75 -58 138 -84 216 -88 503
13 612 215 33 61 57 163 57 248 0 71 -30 196 -60 251 -22 39 -21 35 14 -57 17
-45 20 -78 20 -180 0 -148 -2 -160 -39 -236 -55 -113 -171 -205 -302 -239
-109 -29 -266 -16 -341 28 -32 19 -50 36 -140 136 -33 37 -72 128 -72 170 0
15 -4 31 -10 37 -12 12 -32 187 -21 194 4 3 14 34 21 70 14 72 28 104 62 145
119 143 177 185 257 185 51 1 54 2 37 15 -24 18 -79 19 -126 1z"/>
<path d="M6302 1845 c-55 -24 -66 -66 -58 -220 4 -71 12 -145 17 -163 13 -40
36 -47 136 -39 144 11 217 77 229 207 4 47 3 61 -5 50 -6 -8 -11 -31 -11 -50
0 -52 -39 -120 -85 -153 -32 -22 -56 -29 -113 -34 -66 -5 -75 -4 -93 15 -29
31 -39 66 -39 131 0 90 17 162 50 209 45 64 38 76 -28 47z"/>
<path d="M2839 1821 l-29 -29 0 -146 c0 -138 1 -146 24 -172 20 -24 32 -28 90
-32 60 -4 71 -2 109 23 23 16 47 28 54 28 7 0 13 4 13 9 0 17 -43 7 -72 -17
-24 -21 -40 -25 -90 -25 -34 0 -59 3 -55 6 3 4 0 18 -7 33 -21 42 -28 218 -9
266 34 92 26 109 -28 56z"/>
<path d="M3598 1840 c-53 -31 -65 -353 -15 -403 18 -18 28 -19 107 -14 161 10
240 82 240 217 0 47 -21 120 -35 120 -3 0 -1 -8 4 -17 16 -32 23 -109 12 -148
-25 -92 -84 -138 -200 -156 -78 -12 -88 -8 -96 31 -2 13 -10 27 -16 31 -9 5
-10 37 -7 111 5 95 12 124 53 221 5 13 2 17 -11 17 -11 0 -27 -5 -36 -10z"/>
<path d="M6947 1795 c2 -33 7 -103 12 -155 10 -130 3 -582 -10 -650 -11 -56
-30 -95 -58 -118 -56 -45 -132 -91 -166 -99 l-40 -11 39 -1 c44 -1 118 39 179
97 67 65 71 91 71 537 -1 329 -3 396 -16 425 l-16 35 5 -60z"/>
<path d="M1886 1818 c-24 -33 -19 -77 15 -159 17 -41 50 -132 74 -203 24 -70
51 -136 60 -147 10 -10 30 -42 45 -71 24 -44 33 -53 56 -53 38 0 54 26 125
200 68 167 130 369 128 418 -1 21 -3 25 -6 12 -37 -151 -101 -338 -162 -480
-10 -22 -24 -54 -30 -72 -22 -54 -34 -57 -79 -21 -55 46 -63 61 -126 252 -51
154 -56 177 -56 257 0 71 -3 89 -14 89 -8 0 -22 -10 -30 -22z"/>
<path d="M4448 1812 c-24 -28 -25 -37 -31 -212 -4 -101 -7 -251 -7 -334 0
-139 2 -155 23 -196 43 -82 162 -120 268 -85 68 23 82 32 119 83 32 45 35 52
20 52 -5 0 -23 -20 -39 -44 -35 -51 -100 -83 -176 -87 -88 -4 -138 24 -151 85
-21 96 -25 159 -18 331 4 105 7 224 8 265 1 41 8 92 15 113 18 53 2 68 -31 29z"/>
<path d="M6724 1782 c17 -53 24 -132 15 -173 -12 -51 -49 -112 -90 -147 -16
-13 -29 -32 -29 -41 0 -34 83 -84 93 -57 3 8 2 17 -3 22 -4 5 -10 29 -12 54
-4 35 0 51 17 75 35 48 45 71 56 130 9 47 7 61 -9 99 -21 46 -50 76 -38 38z"/>
<path d="M5800 1781 c0 -6 5 -13 10 -16 6 -4 8 -11 4 -16 -3 -5 0 -8 7 -7 19
4 66 -88 80 -157 22 -106 22 -184 0 -275 -11 -47 -19 -85 -18 -86 1 -1 22 15
46 36 l44 38 -2 81 c-2 67 1 81 13 81 23 0 19 19 -5 29 -16 5 -30 30 -51 87
-16 43 -30 87 -33 97 -4 17 -82 117 -91 117 -2 0 -4 -4 -4 -9z"/>
<path d="M7993 1725 c2 -27 16 -92 31 -143 25 -82 28 -105 24 -190 -4 -87 -27
-186 -58 -257 -5 -11 -13 -46 -17 -79 l-8 -58 -65 -17 c-36 -9 -83 -29 -105
-45 -48 -35 -94 -86 -95 -104 0 -19 53 12 74 43 9 14 21 23 25 20 5 -2 15 3
22 12 8 9 42 29 77 45 74 34 102 59 102 93 0 14 5 25 10 25 6 0 10 8 10 18 0
10 8 52 19 93 10 41 18 83 19 94 0 11 5 71 11 133 14 138 2 198 -62 332 l-17
35 3 -50z"/>
<path d="M4048 1693 c4 -65 2 -79 -24 -130 -15 -32 -45 -74 -65 -94 -29 -27
-37 -41 -32 -58 6 -22 80 -68 91 -56 4 3 1 9 -5 13 -6 4 -12 30 -14 59 -2 28
-1 49 2 47 4 -2 21 19 39 46 37 58 55 125 42 155 -5 11 -16 36 -24 55 -15 35
-15 34 -10 -37z"/>
<path d="M1581 1734 c66 -131 95 -336 65 -454 -30 -119 -78 -204 -166 -293
-44 -45 -80 -83 -80 -85 0 -2 23 9 51 25 68 37 152 131 196 220 38 76 40 93
43 268 2 127 -22 224 -65 265 -14 13 -25 29 -25 36 0 7 -5 16 -12 20 -6 4 -9
3 -7 -2z"/>
<path d="M7758 1356 c2 -204 -1 -312 -8 -326 -23 -43 -113 -67 -275 -75 -279
-14 -256 -8 -394 -99 -53 -35 -105 -68 -116 -74 -19 -11 -18 -11 8 -12 15 0
27 4 27 8 0 12 111 56 135 54 11 0 31 10 45 23 14 13 52 36 84 51 52 24 76 28
212 34 174 9 240 26 279 71 l25 31 0 281 c-1 197 -5 291 -13 310 -10 23 -11
-32 -9 -277z"/>
<path d="M5737 1635 c3 -11 17 -81 29 -155 26 -149 23 -214 -14 -286 -29 -57
-98 -131 -150 -162 -44 -25 -55 -27 -162 -27 -105 0 -120 3 -175 28 -41 19
-56 30 -46 36 10 7 9 9 -3 14 -9 4 -16 2 -16 -4 0 -6 -5 -7 -11 -4 -6 4 -8 9
-5 12 3 3 -8 25 -25 49 -26 39 -69 126 -68 139 1 11 -34 161 -42 183 -5 13 -9
37 -10 55 0 18 -4 41 -9 52 -7 19 -8 18 -13 -5 -14 -61 -13 -99 5 -169 25
-100 82 -221 124 -262 18 -18 31 -36 28 -40 -9 -15 101 -78 166 -95 82 -21
189 -14 257 16 93 41 187 171 199 276 8 64 -23 278 -47 329 -11 22 -16 31 -12
20z"/>
<path d="M2819 1373 c-10 -12 -14 -51 -14 -148 0 -126 1 -133 27 -172 22 -34
38 -45 91 -62 104 -35 229 -10 274 55 10 14 26 34 35 45 11 11 13 21 7 24 -13
9 -39 -13 -39 -32 0 -39 -103 -92 -179 -93 -76 0 -126 17 -142 49 -18 37 -19
46 -27 150 -8 100 0 136 40 178 l21 23 -40 0 c-26 0 -46 -6 -54 -17z"/>
<path d="M3569 1349 c-21 -21 -22 -28 -16 -163 6 -147 15 -189 42 -199 13 -6
15 1 13 43 -2 28 -6 50 -10 50 -5 0 -8 41 -8 90 0 57 4 90 11 90 5 0 7 5 4 11
-4 5 5 27 18 48 14 22 23 42 20 45 -14 13 -54 5 -74 -15z"/>
<path d="M6265 1350 c-15 -17 -18 -37 -16 -132 2 -164 16 -218 57 -224 13 -2
15 4 9 34 -4 20 -11 40 -16 43 -5 3 -10 46 -11 95 -2 90 -2 91 35 142 20 29
37 54 37 57 0 3 -17 5 -38 5 -26 0 -45 -7 -57 -20z"/>
</g>
</svg>
